# xmcd
#
# Track frame offsets: 
#        150
#        17568
#        57756
#        90451
#        107280
#        117275
#        125937
#        134021
#        141163
#        176754
#        191794
#        244769
#
# Disc length: 3627 seconds
#
# Revision: 6
# Processed by: cddbd v1.5.2PL0 Copyright (c) Steve Scherf et al.
# Submitted via: ExactAudioCopy v1.0b3
#
DISCID=aa0e290c
DTITLE=Frédéric Chopin - Collection Historique - Simon Barere
DYEAR=1949
DGENRE=Romantique
TTITLE0=Andante spianato et Grande Polonaise Brillante op. 22 en mi b 
TTITLE0=M - Andante spianato
TTITLE1=Andante spianato et Grande Polonaise Brillante op. 22 en mi b 
TTITLE1=M - Grande Polonaise brillante
TTITLE2=Scherzo n° 3 en ut dièse mineur op. 39
TTITLE3=Grande Valse nouvelle en la bémol majeur op. 42
TTITLE4=Étude en fa majeur op. 10 n° 8 - andante
TTITLE5=Étude en ut dièse mineur op. 10 n° 4 - presto
TTITLE6=Étude en sol bémol majeur op. 10 n° 5 - vivace
TTITLE7=Étude en sol bémol majeur op. 10 n° 5 - vivace (bis)
TTITLE8=Ballade n° 1 en sol mineur op. 23
TTITLE9=Impromptu n° 1 en la bémol majeur op. 2
TTITLE10=Fantaisie en fa mineur op. 49
TTITLE11=Nocturne en ré bémol majeur op. 27 n° 2
EXTD=YEAR: 1949
EXTT0=
EXTT1=
EXTT2=
EXTT3=
EXTT4=
EXTT5=
EXTT6=
EXTT7=
EXTT8=
EXTT9=
EXTT10=
EXTT11=
PLAYORDER=
